<?xml version="1.0" encoding="utf-8"?>
<!-- Generator: Adobe Illustrator 19.0.1, SVG Export Plug-In . SVG Version: 6.00 Build 0)  -->
<svg version="1.1" id="Layer_1" xmlns="http://www.w3.org/2000/svg" xmlns:xlink="http://www.w3.org/1999/xlink" x="0px" y="0px"
	 viewBox="-94 240.7 155.3 120.3" style="enable-background:new -94 240.7 155.3 120.3;" xml:space="preserve">
<style type="text/css">
	.st0{fill:#2F334A;}
	.st1{fill:#2CDDBB;}
</style>
<g>
	<path class="st0" d="M-88.4,242.5c2.8-0.5,5.5-0.7,8.2-0.7c2.7,0,5.5,0.2,8.3,0.7v87.6c-2.9,0.5-5.6,0.7-8.2,0.7
		c-2.8,0-5.6-0.2-8.3-0.7C-88.4,330.1-88.4,242.5-88.4,242.5z"/>
	<path class="st0" d="M-27.6,331.5c-4.7,0-8.9-0.8-12.3-2.3c-3.5-1.5-6.4-3.7-8.7-6.4c-2.3-2.7-4-6-5.2-9.6c-1.2-3.7-1.7-7.7-1.7-12
		c0-4.3,0.6-8.3,1.7-12.1c1.2-3.8,2.9-7,5.2-9.8c2.3-2.7,5.2-4.9,8.7-6.5c3.5-1.6,7.6-2.4,12.3-2.4s8.9,0.8,12.4,2.4
		c3.5,1.6,6.5,3.7,8.8,6.5c2.3,2.7,4.1,6,5.2,9.8c1.1,3.8,1.7,7.8,1.7,12.1c0,4.3-0.6,8.3-1.7,12c-1.1,3.7-2.9,6.9-5.2,9.6
		c-2.3,2.7-5.3,4.9-8.8,6.4S-22.8,331.5-27.6,331.5z M-27.6,319.3c4.2,0,7.2-1.6,9.1-4.7c1.8-3.1,2.8-7.6,2.8-13.5
		s-0.9-10.4-2.8-13.5c-1.8-3.1-4.9-4.7-9.1-4.7c-4.1,0-7.1,1.6-9,4.7c-1.8,3.1-2.8,7.6-2.8,13.5s0.9,10.4,2.8,13.5
		C-34.7,317.8-31.7,319.3-27.6,319.3z"/>
	<path class="st0" d="M21.1,256.5H0.9c-0.5-2.3-0.7-4.6-0.7-7.1c0-2.3,0.2-4.6,0.7-6.9h56.9c0.5,2.3,0.7,4.5,0.7,6.9
		c0,2.5-0.2,4.8-0.7,7.1H37.6v73.6c-1.4,0.1-2.7,0.3-4.1,0.4s-2.7,0.2-3.9,0.2c-1.3,0-2.6,0-4.1-0.1s-3-0.2-4.5-0.5L21.1,256.5
		L21.1,256.5z"/>
	<path class="st1" d="M38.8,343.2c0.5,2.7,0.7,5.3,0.7,7.9s-0.2,5.3-0.7,8H-89.3c-0.5-2.7-0.7-5.4-0.7-7.9c0-2.7,0.2-5.3,0.7-8H38.8
		z"/>
</g>
</svg>
