<?xml version="1.0" encoding="utf-8"?>
<!-- Generator: Adobe Illustrator 21.1.0, SVG Export Plug-In . SVG Version: 6.00 Build 0)  -->
<svg version="1.1" id="Layer_1" xmlns="http://www.w3.org/2000/svg" xmlns:xlink="http://www.w3.org/1999/xlink" x="0px" y="0px"
	 viewBox="0 0 800 204" style="enable-background:new 0 0 800 204;" xml:space="preserve">
<style type="text/css">
	.st0{fill:url(#SVGID_1_);}
	.st1{fill:#41414E;}
</style>
<g>
	<g>
		<linearGradient id="SVGID_1_" gradientUnits="userSpaceOnUse" x1="21.0134" y1="222.2168" x2="389.2614" y2="9.6087">
			<stop  offset="0" style="stop-color:#752CFF"/>
			<stop  offset="1" style="stop-color:#4D71FF"/>
		</linearGradient>
		<path class="st0" d="M2.6,24c0-1.6,1.3-3.1,2.9-3.3c0,0,8.4-1.1,13.8-1.1c5.6,0,14.1,1.1,14.1,1.1c1.6,0.2,2.9,1.7,2.9,3.3v63.9
			c0,1.6,0.8,1.9,1.9,0.7c0,0,4.5-5.6,10.1-8.4c5.6-2.8,12-4.2,19.2-4.2s13.9,1.3,20,3.8c6.2,2.6,11.5,6.4,16,11.6
			c4.5,5.2,8,11.7,10.6,19.6c2.6,7.8,3.8,13.9,3.8,24.6c0,10.4-1.6,16.5-4.8,24.7c-3.2,8.2-7.8,15.2-13.9,21
			c-6.1,5.8-13.5,10.2-22.3,13.3c-8.8,3.1-18.7,4.7-29.7,4.7c-3.5,0-7.2-0.2-11.2-0.5c-3.9-0.3-7.9-0.8-11.9-1.3
			c-4-0.6-7.8-1.3-11.5-2.2c-3.7-0.9-7.3-2.1-7.3-2.1c-1.6-0.5-2.8-2.3-2.8-3.9V24z M36.4,166.6c0,1.6,1.3,3.3,2.9,3.7
			c0,0,1.1,0.3,3.2,0.4c2.2,0.2,4.4,0.2,6.6,0.2c10.4,0,18.6-3,24.5-9.1c5.9-6.1,8.9-12.4,8.9-25.3c0-11.5-1.8-17-5.5-23
			c-3.7-6-9.9-9-18.7-9c-6.4,0-11.6,2.1-15.7,6.4c-4.1,4.2-5.7,17.1-5.7,17.1c-0.2,1.6-0.4,4.3-0.4,5.9V166.6z M134.8,24
			c0-1.6,1.3-3.1,2.9-3.3c0,0,8.5-1.1,14.1-1.1c5.4,0,13.8,1.1,13.8,1.1c1.6,0.2,2.9,1.7,2.9,3.3v120c0,1.6,0,4.3,0.1,5.9
			c0,0,0.2,6,0.7,9c0.6,3,1.4,5.4,2.6,7.1c1.2,1.7,2.8,2.8,4.7,3.5c1.9,0.6,4.3,1,7.2,1c1.3,0,2.7-0.1,4.2-0.2
			c1.5-0.2,1.5-0.2,1.5-0.2c1.6-0.3,3.2,0.7,3.5,2.3c0,0,2,10,2,16.3c0,1.3,0,2.4,0,3.5c0,1,0,1,0,1c-0.3,1.3-1.8,2.7-3.4,3.1
			c0,0-2.7,0.7-6.3,1c-3.6,0.3-6.9,0.5-10,0.5c-12.3,0-22.2-3.4-29.6-10.2c-7.4-6.8-10.7-30.3-10.7-30.3c-0.2-1.6-0.4-4.3-0.4-5.9
			V24z M205.3,78.6c0-1.6,1.3-3.1,2.9-3.3c0,0,8.5-1.1,14.1-1.1c5.6,0,14.1,1.1,14.1,1.1c1.6,0.2,2.9,1.7,2.9,3.3v56.6
			c0,1.6,0.1,4.3,0.1,5.9c0,0,0.4,9,1.4,13.2c1,4.2,2.6,7.6,4.8,10.1c2.2,2.5,4.8,4.2,8,5.3c3.2,1,7,1.6,11.3,1.6
			c5.9,0,12-1.1,12-1.1c1.6-0.3,2.9-1.9,2.9-3.5v-88c0-1.6,1.3-3.1,2.9-3.3c0,0,8.4-1.1,13.8-1.1c5.6,0,14.1,1.1,14.1,1.1
			c1.6,0.2,2.9,1.7,2.9,3.3v110.1c0,1.6-1.3,3.3-2.9,3.8c0,0-9,2.6-17.4,4.3c-8.4,1.7-17.2,2.5-26.3,2.5c-8.2,0-16-0.6-23.5-1.9
			c-7.5-1.3-14.1-4-19.8-8.2c-5.7-4.2-10.2-10.2-13.6-18.2c-3.4-8-4.8-28.9-4.8-28.9c-0.1-1.6-0.2-4.3-0.2-5.9V78.6z M368.9,144.8
			c-1.6,0-2.7,1.3-2.3,2.9c0,0,3.3,13.7,9.4,18c6.1,4.3,14.1,6.5,24,6.5c5.4,0,11-0.5,16.7-1.6c5.7-1,13.4-3.5,13.4-3.5
			c1.6-0.5,3.4,0.3,4.1,1.8c0,0,2,4.3,3.3,8.8c1.3,4.5,1.9,11.4,1.9,11.4c0.1,1.6-1,3.3-2.6,3.7c0,0-23.7,6.4-39.4,6.4
			c-11.5,0-21.4-1.6-29.6-4.8c-8.2-3.2-15-7.6-20.2-13.3c-5.2-5.7-9-12.4-11.5-20.3c-2.5-7.8-3.7-16.4-3.7-25.7
			c0-9.1,1.3-17.7,3.8-25.7c2.6-8,6.4-15,11.4-20.9c5-5.9,11.3-10.6,18.7-14c7.4-3.4,16.1-5.2,26-5.2c8.6,0,16.3,1.5,23,4.6
			c6.7,3,12.4,7.2,17.2,12.5c4.7,5.3,8.3,11.6,10.7,18.8c2.4,7.3,3.6,15.1,3.6,23.4c0,3-0.1,6-0.4,9c-0.2,3-0.4,4.1-0.4,4.1
			c-0.2,1.6-1.8,2.9-3.4,2.9H368.9z M411.6,121.1c1.6,0,2.7-1.3,2.5-2.9c0,0-1.9-10.9-5.8-15.7c-3.9-4.7-9.4-7.1-16.4-7.1
			c-8,0-14.1,2.2-18.2,6.7c-4.2,4.5-6.8,16.1-6.8,16.1c-0.4,1.6,0.7,2.9,2.3,2.9H411.6z"/>
	</g>
	<g>
		<path class="st1" d="M470.4,6.9c0-1.8,1.4-3.4,3.2-3.6c0,0,8.8-1.1,15.1-1.1c6.3,0,15.3,1.2,15.3,1.2c1.8,0.2,3.2,1.9,3.2,3.6
			v187.4c0,1.8-1.4,3.4-3.2,3.6c0,0-9.1,1.2-15.3,1.2c-6.3,0-15.1-1.1-15.1-1.1c-1.8-0.2-3.2-1.9-3.2-3.6V6.9z M517.3,129.6
			c-0.9-1.5-1.2-4.2-0.7-5.8l18.5-58c0.5-1.7,2.4-3.2,4.2-3.4c0,0,10.4-1.2,17.4-1.2c6.6,0,16.1,1.2,16.1,1.2
			c1.8,0.2,2.7,1.8,2.2,3.4L555.5,122c-0.6,1.7-0.3,4.3,0.6,5.8l40.1,67c0.9,1.5,0.2,2.9-1.6,3.1c0,0-10.8,1.2-17.4,1.2
			c-6.1,0-16.1-1.2-16.1-1.2c-1.8-0.2-4-1.6-4.9-3.2L517.3,129.6z"/>
	</g>
	<g>
		<g>
			<path class="st1" d="M629.8,65.3c-0.4-1.7-2.1-3.4-3.8-3.8c0,0-2.9-0.6-6.2-0.8c-3.3-0.2-6.7-0.3-10.2-0.4c-2.4,0-5.4,0-9,0.2
				c-3.6,0.1-8.2,0.9-8.2,0.9c-1.8,0.3-2.8,1.9-2.3,3.6l6.1,20.9c0.5,1.7,2.4,3.1,4.1,3.1l31.2,0.3c1.8,0,2.9-1.4,2.6-3.1
				L629.8,65.3z"/>
		</g>
		<g>
			<path class="st1" d="M794.9,66.9c0.5-1.7-0.4-3.3-2.2-3.7c0,0-4.8-0.9-8.2-1.1c-3.4-0.2-6.3-0.3-8.7-0.3c-3.3,0-6.3,0.1-8.9,0.3
				c-2.6,0.2-5.2,0.6-5.2,0.6c-1.8,0.3-3.5,1.9-3.9,3.6l-4.8,20.9c-0.4,1.7,0.7,3.2,2.5,3.2l28.4,0.3c1.8,0,3.7-1.4,4.2-3
				L794.9,66.9z"/>
		</g>
		<g>
			<path class="st1" d="M737,157.7c-0.4,1.7-1.1,1.7-1.5,0L713.4,66c-0.4-1.7-2.2-3.4-3.9-3.7c0,0-1.7-0.3-4.6-0.5
				c-3-0.2-8-0.5-8-0.5c-1.8-0.1-4.7-0.1-6.5-0.1l-11.3,0.9c-1.8,0.2-3.6,1.8-4,3.5l-24.3,93.2c-0.4,1.7-1.1,1.7-1.5,0l-9.7-46.8
				c-0.4-1.7-2.1-3.2-3.9-3.2l-29.5-0.3c-1.8,0-2.8,1.4-2.3,3.1l24,82c0.5,1.7,2.3,3.4,4.1,3.7c0,0,2.9,0.6,6.1,0.8
				c3.2,0.2,6,0.3,8.5,0.3c2.4,0,5.4,0,9-0.2c3.6-0.1,7.1-0.6,7.1-0.6c1.8-0.2,3.6-1.8,4.1-3.5l24.3-83c0.5-1.7,1.3-1.7,1.7,0
				l22.1,83.2c0.5,1.7,2.3,3.4,4,3.7c0,0,2.9,0.6,6.1,0.8c3.2,0.2,6.1,0.3,8.7,0.3c2.4,0,5.4,0,9-0.2c3.6-0.1,6.8-0.6,6.8-0.6
				c1.8-0.2,3.7-1.8,4.2-3.5l26.3-81.8c0.5-1.7-0.5-3.1-2.2-3.1l-26.6-0.2c-1.8,0-3.6,1.4-3.9,3.1L737,157.7z"/>
		</g>
	</g>
</g>
</svg>
